<svg width="15" height="15" viewBox="0 0 15 15" fill="none" xmlns="http://www.w3.org/2000/svg">
<g clip-path="url(#clip0_825_24318)">
<path d="M11.6088 0.833862C11.9446 0.833887 12.2771 0.899636 12.5873 1.0282C12.8976 1.15681 13.18 1.34526 13.4174 1.58289C13.6549 1.82025 13.8435 2.10275 13.972 2.41296C14.1005 2.72313 14.1664 3.05575 14.1664 3.39148C14.1664 3.72724 14.1006 4.05981 13.972 4.37C13.8434 4.68026 13.655 4.96269 13.4174 5.20007L6.0365 12.58C5.67336 12.9431 5.21951 13.2024 4.72205 13.33L1.54822 14.1444C1.4527 14.1691 1.35245 14.1682 1.2572 14.1425C1.16184 14.1166 1.07429 14.0667 1.00427 13.9969C0.934208 13.9271 0.883023 13.8394 0.856812 13.744C0.830762 13.6489 0.830434 13.5486 0.854858 13.453L1.67029 10.2782L1.724 10.0936C1.86425 9.66846 2.10271 9.28085 2.42029 8.96277L9.80017 1.58289C10.0376 1.34529 10.32 1.1568 10.6302 1.0282C10.9404 0.899701 11.273 0.833862 11.6088 0.833862ZM3.224 9.76746C3.03204 9.95911 2.88898 10.1933 2.80505 10.4501L2.77283 10.5614L2.19568 12.8036L4.43884 12.2274L4.55017 12.1952C4.80692 12.1109 5.04087 11.967 5.23279 11.7753L11.1488 5.85925L9.14001 3.85046L3.224 9.76746ZM11.6088 1.97156C11.2322 1.97156 10.8712 2.12129 10.6049 2.38757L9.9447 3.04675L11.9525 5.05457L12.6127 4.39539C12.8789 4.1291 13.0287 3.76804 13.0287 3.39148C13.0287 3.01493 12.8789 2.65387 12.6127 2.38757C12.3464 2.12131 11.9853 1.97161 11.6088 1.97156Z" fill="#4A5565" stroke="#4A5565" stroke-width="0.2"/>
</g>
<defs>
<clipPath id="clip0_825_24318">
<rect width="15" height="15" fill="white"/>
</clipPath>
</defs>
</svg>
