<svg width="24" height="24" viewBox="0 0 24 24" fill="none" xmlns="http://www.w3.org/2000/svg">
<rect width="24" height="24" rx="12" fill="#EBF2FE"/>
<path d="M6.75 9.08325C6.75 8.61912 6.93437 8.174 7.26256 7.84582C7.59075 7.51763 8.03587 7.33325 8.5 7.33325H15.5C15.9641 7.33325 16.4092 7.51763 16.7374 7.84582C17.0656 8.174 17.25 8.61912 17.25 9.08325V14.9166C17.25 15.3807 17.0656 15.8258 16.7374 16.154C16.4092 16.4822 15.9641 16.6666 15.5 16.6666H8.5C8.03587 16.6666 7.59075 16.4822 7.26256 16.154C6.93437 15.8258 6.75 15.3807 6.75 14.9166V9.08325Z" stroke="#5095FF" stroke-width="0.875" stroke-linecap="round" stroke-linejoin="round"/>
<path d="M13.7499 9.6665H14.9166M13.7499 11.9998H14.9166M9.08325 14.3332H14.9166M9.08325 10.8332C9.08325 11.1426 9.20617 11.4393 9.42496 11.6581C9.64375 11.8769 9.9405 11.9998 10.2499 11.9998C10.5593 11.9998 10.8561 11.8769 11.0749 11.6581C11.2937 11.4393 11.4166 11.1426 11.4166 10.8332C11.4166 10.5238 11.2937 10.227 11.0749 10.0082C10.8561 9.78942 10.5593 9.6665 10.2499 9.6665C9.9405 9.6665 9.64375 9.78942 9.42496 10.0082C9.20617 10.227 9.08325 10.5238 9.08325 10.8332Z" stroke="#5095FF" stroke-width="0.875" stroke-linecap="round" stroke-linejoin="round"/>
</svg>
