<svg width="18" height="18" viewBox="0 0 18 18" fill="none" xmlns="http://www.w3.org/2000/svg">
<g clip-path="url(#clip0_849_28405)">
<path d="M6.19849 2.91675H4.37557C3.57015 2.91675 2.91724 3.56967 2.91724 4.37508V14.5834C2.91724 15.3889 3.57015 16.0417 4.37557 16.0417H8.75057" stroke="#34405B" stroke-width="1.09375" stroke-linecap="round"/>
<path d="M11.3015 2.91675H13.1244C13.9299 2.91675 14.5828 3.56967 14.5828 4.37508V10.9376" stroke="#34405B" stroke-width="1.09375" stroke-linecap="round"/>
<path d="M5.83276 4.66675V3.28133C5.83276 3.07998 5.99599 2.91675 6.19735 2.91675C6.3987 2.91675 6.56501 2.75344 6.5995 2.55507C6.70753 1.93362 7.1263 0.729248 8.74943 0.729248C10.3726 0.729248 10.7913 1.93362 10.8994 2.55507C10.9339 2.75344 11.1002 2.91675 11.3015 2.91675C11.5028 2.91675 11.6661 3.07998 11.6661 3.28133V4.66675C11.6661 4.90837 11.4702 5.10425 11.2286 5.10425H6.27026C6.02864 5.10425 5.83276 4.90837 5.83276 4.66675Z" stroke="#34405B" stroke-width="1.09375" stroke-linecap="round"/>
<path d="M11.3015 14.948L12.7598 16.4063L16.4057 12.7605" stroke="#34405B" stroke-width="1.09375" stroke-linecap="round" stroke-linejoin="round"/>
</g>
<defs>
<clipPath id="clip0_849_28405">
<rect width="17.5" height="17.5" fill="white"/>
</clipPath>
</defs>
</svg>
