<svg width="24" height="24" viewBox="0 0 24 24" fill="none" xmlns="http://www.w3.org/2000/svg">
<rect width="24" height="24" rx="12" fill="#FFEAEA"/>
<path d="M17.9506 15.2862L13.1682 6.98082C13.0487 6.77734 12.878 6.60862 12.6732 6.4914C12.4684 6.37417 12.2366 6.3125 12.0006 6.3125C11.7646 6.3125 11.5327 6.37417 11.3279 6.4914C11.1231 6.60862 10.9525 6.77734 10.833 6.98082L6.05059 15.2862C5.9356 15.483 5.875 15.7069 5.875 15.9348C5.875 16.1627 5.9356 16.3866 6.05059 16.5834C6.16856 16.7881 6.33888 16.9577 6.54407 17.0749C6.74925 17.192 6.98191 17.2525 7.21816 17.25H16.783C17.0191 17.2523 17.2515 17.1918 17.4565 17.0746C17.6615 16.9575 17.8316 16.7879 17.9495 16.5834C18.0646 16.3867 18.1254 16.1629 18.1256 15.9349C18.1258 15.707 18.0654 15.4831 17.9506 15.2862ZM17.1921 16.1453C17.1504 16.2165 17.0905 16.2752 17.0186 16.3156C16.9468 16.3559 16.8654 16.3765 16.783 16.375H7.21816C7.13574 16.3765 7.05441 16.3559 6.98253 16.3156C6.91065 16.2752 6.85079 16.2165 6.8091 16.1453C6.77134 16.0814 6.75142 16.0085 6.75142 15.9343C6.75142 15.86 6.77134 15.7871 6.8091 15.7232L11.5915 7.41777C11.6341 7.34699 11.6942 7.28842 11.7661 7.24776C11.8379 7.2071 11.9191 7.18573 12.0017 7.18573C12.0843 7.18573 12.1654 7.2071 12.2373 7.24776C12.3092 7.28842 12.3693 7.34699 12.4118 7.41777L17.1943 15.7232C17.2317 15.7873 17.2512 15.8603 17.2509 15.9346C17.2505 16.0088 17.2302 16.0816 17.1921 16.1453ZM11.5631 12.875V10.6875C11.5631 10.5715 11.6092 10.4602 11.6912 10.3782C11.7733 10.2961 11.8846 10.25 12.0006 10.25C12.1166 10.25 12.2279 10.2961 12.3099 10.3782C12.392 10.4602 12.4381 10.5715 12.4381 10.6875V12.875C12.4381 12.9911 12.392 13.1023 12.3099 13.1844C12.2279 13.2664 12.1166 13.3125 12.0006 13.3125C11.8846 13.3125 11.7733 13.2664 11.6912 13.1844C11.6092 13.1023 11.5631 12.9911 11.5631 12.875ZM12.6568 14.8438C12.6568 14.9736 12.6183 15.1005 12.5462 15.2084C12.4741 15.3163 12.3716 15.4004 12.2517 15.4501C12.1318 15.4998 11.9999 15.5127 11.8726 15.4874C11.7453 15.4621 11.6283 15.3996 11.5365 15.3078C11.4448 15.216 11.3823 15.0991 11.3569 14.9718C11.3316 14.8445 11.3446 14.7126 11.3943 14.5927C11.444 14.4727 11.5281 14.3702 11.636 14.2981C11.7439 14.226 11.8708 14.1875 12.0006 14.1875C12.1746 14.1875 12.3416 14.2567 12.4646 14.3797C12.5877 14.5028 12.6568 14.6697 12.6568 14.8438Z" fill="#FF6262"/>
</svg>
