<svg width="18" height="18" viewBox="0 0 18 18" fill="none" xmlns="http://www.w3.org/2000/svg">
<path d="M13.8542 14.5833H3.64583C2.84042 14.5833 2.1875 13.9304 2.1875 13.125V6.56246C2.1875 5.75704 2.84042 5.10413 3.64583 5.10413H13.8542C14.6596 5.10413 15.3125 5.75704 15.3125 6.56246V13.125C15.3125 13.9304 14.6596 14.5833 13.8542 14.5833Z" stroke="#34405B" stroke-width="1.09375"/>
<path d="M12.0318 10.2084C11.8305 10.2084 11.6672 10.0452 11.6672 9.84383C11.6672 9.64251 11.8305 9.47925 12.0318 9.47925C12.2331 9.47925 12.3964 9.64251 12.3964 9.84383C12.3964 10.0452 12.2331 10.2084 12.0318 10.2084Z" fill="#34405B" stroke="#34405B" stroke-width="1.09375" stroke-linecap="round" stroke-linejoin="round"/>
<path d="M13.125 5.1042V4.08572C13.125 3.12755 12.2168 2.42974 11.2909 2.67662L3.27007 4.81552C2.63169 4.98576 2.1875 5.56391 2.1875 6.22461V6.56253" stroke="#34405B" stroke-width="1.09375"/>
</svg>
